<?xml version="1.0"?>
<svg version="1.1" xmlns="http://www.w3.org/2000/svg" width="162" height="65" style=""><path fill="#ffffff" d="M37.032,46.04c0,0.648-0.252,0.9-0.864,0.9l-2.844,0c-0.648,0-0.936-0.252-0.936-0.9l0-10.044l-10.224,0l0,10.044c0,0.648-0.288,0.9-0.9,0.9l-2.808,0c-0.648,0-0.972-0.252-0.972-0.9l0-23.148c0-0.612,0.396-0.864,0.972-0.864l2.808,0c0.576,0,0.9,0.216,0.9,0.864l0,9.396l10.224,0l0-9.396c0-0.612,0.36-0.864,0.936-0.864l2.844,0c0.576,0,0.864,0.216,0.864,0.864l0,23.148z M65.454,34.34c0,8.136-4.644,13.032-11.088,13.032c-6.876,0-10.836-5.004-10.836-12.816c0-7.74,4.32-12.996,11.088-12.996c7.128,0,10.836,5.4,10.836,12.78z M60.486,34.448c0-6.048-2.124-8.964-5.976-8.964c-3.6,0-6.012,3.348-6.012,8.964c0,5.976,2.196,9,6.012,9c3.564,0,5.976-3.132,5.976-9z M89.124,39.668c0,5.832-4.716,7.272-9.828,7.272l-6.696,0c-0.756,0-0.936-0.288-0.936-1.044l0-22.932c0-0.756,0.324-0.936,1.08-0.936l5.4,0c5.796,0,9.036,1.764,9.036,6.084c0,2.52-1.44,4.716-4.068,5.292l0,0.036c3.42,0.252,6.012,2.592,6.012,6.228z M82.644,28.652c0-2.34-1.836-3.096-4.356-3.096l-2.016,0l0,6.696l1.872,0c2.628,0,4.5-0.684,4.5-3.6z M84.408,39.524c0-1.692-0.756-2.772-1.908-3.348c-1.116-0.54-2.34-0.648-3.852-0.648l-2.376,0l0,7.848l2.664,0c1.26,0,2.484-0.108,3.384-0.468c1.26-0.54,2.088-1.656,2.088-3.384z M112.794,39.668c0,5.832-4.716,7.272-9.828,7.272l-6.696,0c-0.756,0-0.936-0.288-0.936-1.044l0-22.932c0-0.756,0.324-0.936,1.08-0.936l5.4,0c5.796,0,9.036,1.764,9.036,6.084c0,2.52-1.44,4.716-4.068,5.292l0,0.036c3.42,0.252,6.012,2.592,6.012,6.228z M106.314,28.652c0-2.34-1.836-3.096-4.356-3.096l-2.016,0l0,6.696l1.872,0c2.628,0,4.5-0.684,4.5-3.6z M108.078,39.524c0-1.692-0.756-2.772-1.908-3.348c-1.116-0.54-2.34-0.648-3.852-0.648l-2.376,0l0,7.848l2.664,0c1.26,0,2.484-0.108,3.384-0.468c1.26-0.54,2.088-1.656,2.088-3.384z M134.232,46.076c0,0.576-0.252,0.864-0.864,0.864l-13.356,0c-0.72,0-0.972-0.18-0.972-0.972l0-23.04c0-0.576,0.252-0.9,0.828-0.9l13.572,0c0.576,0,0.756,0.216,0.756,0.612l0,0.216l-0.252,2.16c-0.072,0.648-0.468,0.756-1.224,0.756l-9.036,0l0,6.516l8.316,0c0.684,0,0.9,0.288,0.9,0.792l0,2.052c0,0.612-0.252,0.864-0.864,0.864l-8.352,0l0,7.2l9.648,0c0.612,0,0.9,0.252,0.9,0.828l0,2.052z M155.922,39.668c0,5.004-4.068,7.704-8.748,7.704c-2.16,0-4.716-0.396-6.876-1.152c-0.468-0.18-0.612-0.396-0.612-0.684c0-0.144,0-0.288,0.072-0.468l0.756-2.34c0.108-0.36,0.288-0.576,0.648-0.576c0.144,0,0.324,0.036,0.54,0.108c1.692,0.612,3.564,1.08,5.364,1.08c1.944,0,4.14-0.936,4.14-3.204c0-1.656-1.224-2.556-2.628-3.24l-4.68-2.34c-2.556-1.26-4.248-3.384-4.248-6.192c0-4.392,4.32-6.804,8.316-6.804c2.376,0,4.356,0.36,6.444,1.26c0.468,0.216,0.72,0.432,0.72,0.72c0,0.144-0.036,0.288-0.108,0.468l-0.864,2.196c-0.144,0.396-0.36,0.54-0.612,0.54c-0.18,0-0.36-0.072-0.576-0.144c-1.476-0.612-3.312-1.116-4.752-1.116c-1.692,0-3.636,0.72-3.636,2.736c0,1.476,1.368,2.34,2.556,2.916l3.996,1.944c2.844,1.368,4.788,3.276,4.788,6.588z"/><path fill="#" d=""/></svg>
